<?xml version="1.0" encoding="UTF-8" standalone="no"?>
<!-- Created with Inkscape (http://www.inkscape.org/) -->

<svg
   xmlns:dc="http://purl.org/dc/elements/1.1/"
   xmlns:cc="http://creativecommons.org/ns#"
   xmlns:rdf="http://www.w3.org/1999/02/22-rdf-syntax-ns#"
   xmlns:svg="http://www.w3.org/2000/svg"
   xmlns="http://www.w3.org/2000/svg"
   xmlns:sodipodi="http://sodipodi.sourceforge.net/DTD/sodipodi-0.dtd"
   xmlns:inkscape="http://www.inkscape.org/namespaces/inkscape"
   width="15cm"
   height="15cm"
   viewBox="0 0 531.49606 531.49605"
   id="svg2"
   version="1.1"
   inkscape:version="0.91 r13725"
   sodipodi:docname="レーザーカッター用01.svg">
  <defs
     id="defs4" />
  <sodipodi:namedview
     id="base"
     pagecolor="#ffffff"
     bordercolor="#666666"
     borderopacity="1.0"
     inkscape:pageopacity="0.0"
     inkscape:pageshadow="2"
     inkscape:zoom="1"
     inkscape:cx="172.50226"
     inkscape:cy="351.2194"
     inkscape:document-units="mm"
     inkscape:current-layer="layer1"
     showgrid="true"
     units="cm"
     showguides="false"
     inkscape:window-width="1280"
     inkscape:window-height="697"
     inkscape:window-x="-8"
     inkscape:window-y="-8"
     inkscape:window-maximized="1">
    <inkscape:grid
       type="xygrid"
       id="grid3336"
       units="cm"
       spacingx="3.5433073"
       spacingy="3.5433072"
       empspacing="5" />
  </sodipodi:namedview>
  <metadata
     id="metadata7">
    <rdf:RDF>
      <cc:Work
         rdf:about="">
        <dc:format>image/svg+xml</dc:format>
        <dc:type
           rdf:resource="http://purl.org/dc/dcmitype/StillImage" />
        <dc:title />
      </cc:Work>
    </rdf:RDF>
  </metadata>
  <g
     inkscape:label="レイヤー 1"
     inkscape:groupmode="layer"
     id="layer1"
     transform="translate(0,-520.8662)">
    <circle
       style="fill:none;fill-rule:evenodd;stroke:#ff0000;stroke-width:0.90708661;stroke-linecap:butt;stroke-linejoin:miter;stroke-opacity:1;stroke-miterlimit:4;stroke-dasharray:none"
       id="path3338"
       cx="194.71829"
       cy="715.2337"
       r="176.68884" />
    <circle
       style="fill:none;fill-rule:evenodd;stroke:#ff0000;stroke-width:2.97184372px;stroke-linecap:butt;stroke-linejoin:miter;stroke-opacity:1"
       id="path3340"
       cx="196.46329"
       cy="769.07599"
       r="105.30154" />
    <circle
       style="fill:none;fill-rule:evenodd;stroke:#ff0000;stroke-width:2.48376369px;stroke-linecap:butt;stroke-linejoin:miter;stroke-opacity:1"
       id="path3340-4"
       cx="196.46327"
       cy="770.82397"
       r="88.007362" />
    <circle
       style="fill:none;fill-rule:evenodd;stroke:#ff0000;stroke-width:0.28178036px;stroke-linecap:butt;stroke-linejoin:miter;stroke-opacity:1"
       id="path3357"
       cx="194.91731"
       cy="715.4964"
       r="4.9921727" />
    <path
       style="fill:none;fill-rule:evenodd;stroke:#ff0000;stroke-width:1px;stroke-linecap:butt;stroke-linejoin:miter;stroke-opacity:1"
       d="m 425.41524,520.66663 106.29922,0 0,70.86614 -35.43307,0 0,389.76382 -35.43308,0 0,-389.76382 -35.43307,0 z"
       id="path3359"
       inkscape:connector-curvature="0" />
    <circle
       style="fill:none;fill-rule:evenodd;stroke:#ff0000;stroke-width:0.77889782px;stroke-linecap:butt;stroke-linejoin:miter;stroke-opacity:1"
       id="path3361"
       cx="478.34647"
       cy="556.29926"
       r="8.2796221" />
    <path
       style="fill:none;fill-rule:evenodd;stroke:#ff0000;stroke-width:1px;stroke-linecap:butt;stroke-linejoin:miter;stroke-opacity:1"
       d="m 53.149607,1016.9292 0,-35.43311 70.866143,0 0,35.43311 17.71653,0 0,17.7165 -106.299209,0 0,-17.7165 z"
       id="path3363"
       inkscape:connector-curvature="0" />
    <path
       style="fill:none;fill-rule:evenodd;stroke:#ff0000;stroke-width:1px;stroke-linecap:butt;stroke-linejoin:miter;stroke-opacity:1"
       d="m 70.866142,989.18624 -1.366142,0 38.67773,0 -7e-4,13.30256 -38.681405,-0.1302 -0.129483,-13.17236"
       id="path3365"
       inkscape:connector-curvature="0"
       sodipodi:nodetypes="cccccc" />
    <path
       style="fill:none;fill-rule:evenodd;stroke:#ff0000;stroke-width:1px;stroke-linecap:butt;stroke-linejoin:miter;stroke-opacity:1"
       d="m 177.01575,1017.3623 0,-35.4331 70.86614,0 0,35.4331 17.71653,0 0,17.7165 -106.29921,0 0,-17.7165 z"
       id="path3363-6"
       inkscape:connector-curvature="0" />
    <path
       style="fill:none;fill-rule:evenodd;stroke:#ff0000;stroke-width:1px;stroke-linecap:butt;stroke-linejoin:miter;stroke-opacity:1"
       d="m 194.73228,989.6193 -1.36614,0 38.67773,0 -7e-4,13.3026 -38.6814,-0.1302 -0.12949,-13.1724"
       id="path3365-6"
       inkscape:connector-curvature="0"
       sodipodi:nodetypes="cccccc" />
    <path
       style="fill:none;fill-rule:evenodd;stroke:#ff0000;stroke-width:1px;stroke-linecap:butt;stroke-linejoin:miter;stroke-opacity:1"
       d="m 302.16536,1016.5119 0,-35.4331 70.86614,0 0,35.4331 17.71653,0 0,17.7165 -106.29921,0 0,-17.7165 z"
       id="path3363-6-7"
       inkscape:connector-curvature="0" />
    <path
       style="fill:none;fill-rule:evenodd;stroke:#ff0000;stroke-width:1px;stroke-linecap:butt;stroke-linejoin:miter;stroke-opacity:1"
       d="m 319.88189,988.7689 -1.36614,0 38.67773,0 -7e-4,13.3026 -38.6814,-0.1302 -0.12949,-13.1724"
       id="path3365-6-4"
       inkscape:connector-curvature="0"
       sodipodi:nodetypes="cccccc" />
    <path
       style="fill:none;fill-rule:evenodd;stroke:#ff0000;stroke-width:1px;stroke-linecap:butt;stroke-linejoin:miter;stroke-opacity:1"
       d="m 300.59843,943.2284 0,-35.43306 70.86614,0 0,35.43306 17.71653,0 0,17.7165 -106.29921,0 0,-17.7165 z"
       id="path3363-6-7-0"
       inkscape:connector-curvature="0" />
    <path
       style="fill:none;fill-rule:evenodd;stroke:#ff0000;stroke-width:1px;stroke-linecap:butt;stroke-linejoin:miter;stroke-opacity:1"
       d="m 318.31496,915.4854 -1.36614,0 38.67773,0 -7e-4,13.3026 -38.6814,-0.1302 -0.12949,-13.1724"
       id="path3365-6-4-6"
       inkscape:connector-curvature="0"
       sodipodi:nodetypes="cccccc" />
    <path
       style="fill:none;fill-rule:evenodd;stroke:#ff0000;stroke-width:1px;stroke-linecap:butt;stroke-linejoin:miter;stroke-opacity:1"
       d="M 389.76367 106.29883 L 389.76367 372.04688 L 425.19727 372.04688 L 425.19727 272.33398 L 405.58398 272.33398 L 405.58398 261.70312 L 425.19727 261.70312 L 425.19727 254.65625 L 405.69727 254.65625 L 405.69727 244.02734 L 425.19727 244.02734 L 425.19727 236.86719 L 405.73438 236.86719 L 405.73438 236.75195 L 405.19922 236.75195 L 405.19922 226.12109 L 425.19727 226.12109 L 425.19727 219.07422 L 405.3125 219.07422 L 405.3125 208.44336 L 405.42578 208.44336 L 405.42578 208.4082 L 425.19727 208.4082 L 425.19727 201.35938 L 405.53906 201.35938 L 405.53906 201.2832 L 405.34766 201.2832 L 405.34766 190.6543 L 425.19727 190.6543 L 425.19727 183.57031 L 405.57617 183.57031 L 405.57617 183.49414 L 405.57617 172.93945 L 405.57617 172.86328 L 425.19727 172.86328 L 425.19727 165.7793 L 405.80273 165.7793 L 405.80273 165.625 L 405.53711 165.625 L 405.53711 154.99609 L 425.19727 154.99609 L 425.19727 147.94922 L 405.85938 147.94922 L 405.85938 147.91211 L 405.76367 147.91211 L 405.76367 137.28125 L 425.19727 137.28125 L 425.19727 130.23438 L 406.08594 130.23438 L 406.08594 119.60352 L 425.19727 119.60352 L 425.19727 106.29883 L 389.76367 106.29883 z "
       transform="translate(0,520.8662)"
       id="rect3423" />
  </g>
</svg>
